<svg xmlns="http://www.w3.org/2000/svg" width="1200" height="700" viewBox="0 0 1200 700">
  <rect width="1200" height="700" fill="#f7f9fc"/>
  <text x="60" y="70" font-family="Arial, sans-serif" font-size="28" fill="#1f2a44">Platform Flow</text>

  <rect x="80" y="120" width="260" height="80" rx="14" fill="#ffffff" stroke="#c9d3e7"/>
  <text x="110" y="168" font-family="Arial, sans-serif" font-size="18" fill="#2a3551">GitHub Actions</text>

  <rect x="380" y="120" width="260" height="80" rx="14" fill="#ffffff" stroke="#c9d3e7"/>
  <text x="410" y="168" font-family="Arial, sans-serif" font-size="18" fill="#2a3551">Terraform Apply</text>

  <rect x="680" y="120" width="260" height="80" rx="14" fill="#ffffff" stroke="#c9d3e7"/>
  <text x="720" y="168" font-family="Arial, sans-serif" font-size="18" fill="#2a3551">EKS + AKS</text>

  <line x1="340" y1="160" x2="380" y2="160" stroke="#7f8fb3" stroke-width="3"/>
  <line x1="640" y1="160" x2="680" y2="160" stroke="#7f8fb3" stroke-width="3"/>

  <rect x="140" y="280" width="920" height="320" rx="20" fill="#ffffff" stroke="#c9d3e7"/>
  <text x="180" y="330" font-family="Arial, sans-serif" font-size="18" fill="#2a3551">Ingress Controllers</text>

  <rect x="200" y="360" width="340" height="90" rx="14" fill="#f0f5ff" stroke="#c9d3e7"/>
  <text x="235" y="412" font-family="Arial, sans-serif" font-size="18" fill="#2a3551">ALB Ingress (EKS)</text>

  <rect x="660" y="360" width="340" height="90" rx="14" fill="#f0f5ff" stroke="#c9d3e7"/>
  <text x="690" y="412" font-family="Arial, sans-serif" font-size="18" fill="#2a3551">App Gateway (AKS)</text>

  <rect x="200" y="480" width="800" height="90" rx="14" fill="#ffffff" stroke="#c9d3e7"/>
  <text x="520" y="535" text-anchor="middle" font-family="Arial, sans-serif" font-size="18" fill="#2a3551">Helm Deployed App (Frontend + Backend)</text>

  <line x1="810" y1="200" x2="810" y2="280" stroke="#7f8fb3" stroke-width="3"/>
</svg>